<svg width="24" height="24" viewBox="0 0 24 24" fill="none" xmlns="http://www.w3.org/2000/svg">
<path d="M21.9361 12.4226C21.9361 11.7676 21.878 11.1458 21.7786 10.5406H12.4102V14.2797H17.7742C17.5338 15.5067 16.8291 16.543 15.7844 17.2477V19.7349H18.9846C20.8583 18.0022 21.9361 15.4487 21.9361 12.4226Z" fill="#4285F4"/>
<path d="M12.4102 22.1475C15.0964 22.1475 17.3431 21.2521 18.9847 19.7349L15.7845 17.2477C14.8891 17.8447 13.7533 18.2095 12.4102 18.2095C9.81524 18.2095 7.61822 16.4601 6.83061 14.0973H3.53094V16.6591C5.1642 19.909 8.5219 22.1475 12.4102 22.1475Z" fill="#34A853"/>
<path d="M6.83059 14.0973C6.62332 13.5004 6.51554 12.862 6.51554 12.1988C6.51554 11.5355 6.63161 10.8971 6.83059 10.3002V7.7384H3.53092C2.85108 9.08148 2.46143 10.5904 2.46143 12.1988C2.46143 13.8071 2.85108 15.316 3.53092 16.6591L6.83059 14.0973Z" fill="#FBBC05"/>
<path d="M12.4102 6.18805C13.8776 6.18805 15.1876 6.69378 16.2239 7.68036L19.0593 4.84497C17.3431 3.23659 15.0964 2.25 12.4102 2.25C8.5219 2.25 5.1642 4.48847 3.53094 7.7384L6.83062 10.3002C7.61822 7.93737 9.81524 6.18805 12.4102 6.18805Z" fill="#EA4335"/>
</svg>
