<svg width="24" height="24" viewBox="0 0 24 24" fill="none" xmlns="http://www.w3.org/2000/svg">
<path d="M22.222 0.00178957H1.77099C0.804431 -0.00911825 0.0117963 0.765131 0 1.7317V22.268C0.0113924 23.235 0.803963 24.01 1.77099 23.9999H22.222C23.1909 24.0119 23.9866 23.2369 24 22.268V1.73022C23.9862 0.761739 23.1904 -0.0124652 22.222 0.000152051" fill="#0A66C2"/>
<path d="M16.8931 20.4491H20.4491L20.4506 14.1666C20.4506 11.0824 19.7861 8.71162 16.1819 8.71162C14.804 8.66047 13.5097 9.37134 12.8136 10.5615H12.7658V8.99648H9.35203V20.4487H12.9081V14.7833C12.9081 13.2894 13.1915 11.8425 15.0436 11.8425C16.8694 11.8425 16.8931 13.552 16.8931 14.88V20.4491Z" fill="white"/>
<path d="M3.27563 5.36775C3.27584 6.50748 4.19992 7.43125 5.33962 7.43104C5.88693 7.43094 6.41178 7.21343 6.79872 6.82635C7.18565 6.43926 7.40297 5.91432 7.40287 5.36701C7.40267 4.22727 6.47859 3.30351 5.33888 3.30371C4.19918 3.30392 3.27543 4.22802 3.27563 5.36775Z" fill="white"/>
<path d="M3.5579 20.4491H7.11765V8.99648H3.5579V20.4491Z" fill="white"/>
</svg>
