<svg width="22" height="20" viewBox="0 0 22 20" fill="none" xmlns="http://www.w3.org/2000/svg">
<path fill-rule="evenodd" clip-rule="evenodd" d="M18.1251 2.90629C16.2349 1.03307 13.7208 0.000950389 11.0421 0C5.52246 0 1.03028 4.44545 1.02836 9.90971C1.0274 11.6565 1.48881 13.3615 2.36507 14.8641L0.944336 20L6.25275 18.6219C7.71524 19.4117 9.36212 19.8275 11.0378 19.828H11.0421C16.5608 19.828 21.0535 15.382 21.0554 9.91779C21.0564 7.26956 20.0159 4.77999 18.1251 2.90677V2.90629ZM11.0421 18.1543H11.0388C9.54552 18.1539 8.08065 17.7566 6.80253 17.0063L6.49859 16.8276L3.3484 17.6454L4.18912 14.6056L3.9913 14.2938C3.15826 12.9823 2.71797 11.4664 2.71893 9.91021C2.72085 5.36876 6.45441 1.67364 11.0455 1.67364C13.2685 1.67459 15.3581 2.53232 16.9296 4.08953C18.5011 5.64627 19.3658 7.71624 19.3649 9.91685C19.3629 14.4588 15.6294 18.1539 11.0421 18.1539V18.1543ZM15.6073 11.9854C15.3571 11.8614 14.1271 11.2626 13.8975 11.1799C13.668 11.0972 13.5014 11.0559 13.3348 11.3039C13.1682 11.552 12.6886 12.1099 12.5426 12.2748C12.3966 12.4401 12.2506 12.4606 12.0005 12.3365C11.7504 12.2125 10.9442 11.9511 9.98825 11.1077C9.24453 10.4509 8.74225 9.64029 8.59633 9.39221C8.45036 9.14418 8.58097 9.01016 8.70577 8.88709C8.81812 8.7759 8.95593 8.59771 9.08123 8.45324C9.20659 8.30877 9.24788 8.20521 9.3314 8.04028C9.41497 7.87491 9.37318 7.7305 9.31078 7.60643C9.24833 7.48242 8.74806 6.26352 8.53919 5.76791C8.33606 5.28512 8.12964 5.3507 7.97646 5.34262C7.83049 5.33549 7.6639 5.33407 7.49682 5.33407C7.32973 5.33407 7.0589 5.39584 6.82941 5.6439C6.59992 5.89192 5.95363 6.49114 5.95363 7.70954C5.95363 8.92795 6.85008 10.106 6.97538 10.2714C7.10068 10.4367 8.73985 12.9377 11.2495 14.0107C11.8464 14.2658 12.3126 14.4184 12.676 14.5324C13.2753 14.7211 13.8207 14.6945 14.2519 14.6308C14.7325 14.5595 15.7321 14.0316 15.9405 13.4532C16.1489 12.8749 16.1489 12.3788 16.0865 12.2757C16.0241 12.1726 15.857 12.1103 15.6068 11.9863L15.6073 11.9854Z" fill="#25D366"/>
</svg>
